<svg xmlns="http://www.w3.org/2000/svg" viewBox="0 0 445.31 89.54" class="logo-svg"><defs><style>.cls-1,.cls-3{fill:#807f83;}.cls-1,.cls-2{fill-rule:evenodd;}.cls-2{fill:#00b8ba;}</style></defs><title>Teal logo</title><g id="Layer_2" data-name="Layer 2"><g id="Layer_1-2" data-name="Layer 1"><path class="cls-1" d="M311.88,66.35h32.51l3.85-12.48H319.34c-8.23,0-10.7-3.6-9.13-8.68l14-45.2H306.33L293.59,43c-2.88,9.7.67,23.39,18.29,23.39"></path><path class="cls-1" d="M132.84,0H100.57L97,12.43h29.69c8.23,0,10.61,4.19,9.15,9.27L123,66.36h17.83l11.89-43.2C156.92,8,147.52,0,132.84,0"></path><path class="cls-2" d="M166.22,66.36h39.12l3.5-12.43H177c-7,0-7.77-4.59-6.72-8.29l2-7.1h33.17l3.52-12.43H175.8l3.89-13.67h40.91A26.53,26.53,0,0,1,229.41,0H166.09L152.33,50.18c-2.66,9.68,4.18,16.18,13.89,16.18"></path><path class="cls-2" d="M298.82,0H250.64c-14,0-21.77,6.5-24.5,16.17L212,66.36h17.94c4.34-16,8.31-30.65,12.65-46.61,1-3.7,6.24-7.31,11.07-7.31h23.8c-3.77,13.67-4.76,17.38-6,22.06H245.67l-3.38,12.43H268L262.6,66.36H280c6.59-23.28,12.17-43.08,18.8-66.35"></path><path class="cls-3" d="M437.31,88.37h2a7.06,7.06,0,0,0,2-.26,4.48,4.48,0,0,0,1.58-.8,3.76,3.76,0,0,0,1.06-1.37,5.16,5.16,0,0,0,0-3.93,3.77,3.77,0,0,0-1.06-1.37,4.48,4.48,0,0,0-1.58-.8,7.06,7.06,0,0,0-2-.26h-2Zm-1-9.68h3.27a7.06,7.06,0,0,1,2.33.34,5.17,5.17,0,0,1,1.59.86,4.26,4.26,0,0,1,1,1.16,5.65,5.65,0,0,1,.75,2.27q0,.47,0,.66t0,.66a5.64,5.64,0,0,1-.75,2.27,4.26,4.26,0,0,1-1,1.16,5.18,5.18,0,0,1-1.59.86,7.07,7.07,0,0,1-2.33.34h-3.27Zm-11.81,0H431v.9h-5.48v3.76h5.14v.9h-5.14v4.12h5.72v.9h-6.7Zm-9.32.9h-3.61v-.9h8.21v.9h-3.61v9.68h-1Zm-9.32-.9h1V89.27h-1Zm-16.47,0h1.48l3.85,8.87,3.85-8.87H400V89.27h-1V80h0l-4,9.32h-.43L390.41,80h0v9.32h-1Zm-6.87,0h1V89.27h-1ZM372,78.7h1v9.68h4.93v.9H372Zm-22.47,0h1.27L357.2,88h0V78.7h1V89.27h-1.27L350.51,80h0v9.26h-1ZM334.25,84a5.27,5.27,0,0,0,.31,1.84,4.36,4.36,0,0,0,.9,1.48,4.14,4.14,0,0,0,1.41,1,5,5,0,0,0,3.72,0,4.14,4.14,0,0,0,1.41-1,4.37,4.37,0,0,0,.9-1.48,5.54,5.54,0,0,0,0-3.67,4.37,4.37,0,0,0-.9-1.48,4.14,4.14,0,0,0-1.41-1,5,5,0,0,0-3.72,0,4.14,4.14,0,0,0-1.41,1,4.36,4.36,0,0,0-.9,1.48A5.27,5.27,0,0,0,334.25,84Zm-1,0a6,6,0,0,1,.4-2.23A5.29,5.29,0,0,1,334.79,80a5.08,5.08,0,0,1,1.72-1.16,6.09,6.09,0,0,1,4.44,0A5.07,5.07,0,0,1,342.67,80a5.29,5.29,0,0,1,1.12,1.75,6.36,6.36,0,0,1,0,4.46A5.27,5.27,0,0,1,342.67,88a5,5,0,0,1-1.72,1.15,6.2,6.2,0,0,1-4.44,0A5,5,0,0,1,334.79,88a5.27,5.27,0,0,1-1.12-1.76A6,6,0,0,1,333.26,84ZM327,78.7h1V89.27h-1Zm-9.32.9H314v-.9h8.21v.9h-3.61v9.68h-1Zm-12,.18-2.46,5.79h4.85Zm-.46-1.08h1l4.45,10.57h-1.11l-1.15-2.81h-5.6l-1.19,2.81h-1Zm-19.71,0H287l3.85,8.87,3.85-8.87h1.4V89.27h-1V80h0l-4,9.32h-.43L286.53,80h0v9.32h-1ZM270.38,84a5.27,5.27,0,0,0,.31,1.84,4.36,4.36,0,0,0,.9,1.48,4.14,4.14,0,0,0,1.41,1,5,5,0,0,0,3.72,0,4.14,4.14,0,0,0,1.41-1,4.37,4.37,0,0,0,.9-1.48,5.54,5.54,0,0,0,0-3.67,4.37,4.37,0,0,0-.9-1.48,4.14,4.14,0,0,0-1.41-1,5,5,0,0,0-3.72,0,4.14,4.14,0,0,0-1.41,1,4.36,4.36,0,0,0-.9,1.48A5.27,5.27,0,0,0,270.38,84Zm-1,0a6,6,0,0,1,.4-2.23A5.29,5.29,0,0,1,270.91,80a5.08,5.08,0,0,1,1.72-1.16,6.09,6.09,0,0,1,4.44,0A5.07,5.07,0,0,1,278.8,80a5.29,5.29,0,0,1,1.12,1.75,6.36,6.36,0,0,1,0,4.46A5.27,5.27,0,0,1,278.8,88a5,5,0,0,1-1.72,1.15,6.2,6.2,0,0,1-4.44,0A5,5,0,0,1,270.91,88a5.27,5.27,0,0,1-1.12-1.76A6,6,0,0,1,269.39,84Zm-8.63-4.39h-3.61v-.9h8.21v.9h-3.61v9.68h-1Zm-8.14,5.63a6.7,6.7,0,0,1-.19,1.63,3.73,3.73,0,0,1-.65,1.37,3.26,3.26,0,0,1-1.19,1,4.77,4.77,0,0,1-3.63,0,3.26,3.26,0,0,1-1.19-1,3.72,3.72,0,0,1-.65-1.37,6.68,6.68,0,0,1-.19-1.63V78.7h1V85a7.54,7.54,0,0,0,.1,1.21,3.65,3.65,0,0,0,.41,1.19,2.53,2.53,0,0,0,.87.91,3.26,3.26,0,0,0,3,0,2.53,2.53,0,0,0,.87-.91,3.66,3.66,0,0,0,.41-1.19,7.54,7.54,0,0,0,.1-1.21V78.7h1Zm-17.13-5.45L233,85.57h4.85ZM235,78.7h1l4.45,10.57h-1.11l-1.15-2.81h-5.6l-1.19,2.81h-1ZM212.84,84q-.36.21-.71.45a4.45,4.45,0,0,0-.64.53,2.45,2.45,0,0,0-.47.66,1.86,1.86,0,0,0-.18.83,2.1,2.1,0,0,0,.69,1.61,2.23,2.23,0,0,0,.76.45,2.76,2.76,0,0,0,.93.16,2.25,2.25,0,0,0,.78-.13,2.85,2.85,0,0,0,.68-.36,3.81,3.81,0,0,0,.58-.52,5.38,5.38,0,0,0,.49-.62Zm.73-4.64a1.65,1.65,0,0,0-1.13.41,1.38,1.38,0,0,0-.46,1.08,1.5,1.5,0,0,0,.11.55,3.23,3.23,0,0,0,.28.55,4.76,4.76,0,0,0,.37.51l.37.43.66-.36a3.56,3.56,0,0,0,.63-.45,2.35,2.35,0,0,0,.47-.57,1.44,1.44,0,0,0,.19-.74,1.34,1.34,0,0,0-.42-1A1.48,1.48,0,0,0,213.57,79.32Zm2.67,6.87,1.52-2.75h1l-1.91,3.37,2.4,2.52h-1.33l-1.58-1.7A5.78,5.78,0,0,1,214.95,89a3.29,3.29,0,0,1-1.87.52,3.63,3.63,0,0,1-1.26-.22,3,3,0,0,1-1-.62,3,3,0,0,1-.69-1,3.08,3.08,0,0,1-.25-1.27,2.59,2.59,0,0,1,.21-1.08,3,3,0,0,1,.54-.82,4.46,4.46,0,0,1,.77-.65l.9-.58-.46-.56a4.79,4.79,0,0,1-.41-.6,4,4,0,0,1-.3-.65,2.06,2.06,0,0,1-.12-.69,2.3,2.3,0,0,1,.22-1,2.24,2.24,0,0,1,.58-.75,2.62,2.62,0,0,1,.85-.47,3.12,3.12,0,0,1,1-.16,2.5,2.5,0,0,1,.9.16,2.53,2.53,0,0,1,.77.46,2.09,2.09,0,0,1,.72,1.62,2.25,2.25,0,0,1-.2,1,2.65,2.65,0,0,1-.54.75,4.18,4.18,0,0,1-.75.58q-.42.25-.87.49Zm-19.58,2.39a6.86,6.86,0,0,1-1.92.74,9.45,9.45,0,0,1-2,.22,5.83,5.83,0,0,1-2.22-.41A5,5,0,0,1,188.78,88a5.27,5.27,0,0,1-1.12-1.76,6.36,6.36,0,0,1,0-4.46A5.29,5.29,0,0,1,188.78,80a5.08,5.08,0,0,1,1.72-1.16,5.73,5.73,0,0,1,2.22-.42,5.12,5.12,0,0,1,3.81,1.46l-.72.75a3.08,3.08,0,0,0-.59-.53,4,4,0,0,0-.76-.42,4.93,4.93,0,0,0-.86-.27,4.16,4.16,0,0,0-.88-.1,4.64,4.64,0,0,0-1.86.36,4.14,4.14,0,0,0-1.41,1,4.36,4.36,0,0,0-.9,1.48,5.53,5.53,0,0,0,0,3.67,4.36,4.36,0,0,0,.9,1.48,4.14,4.14,0,0,0,1.41,1,4.64,4.64,0,0,0,1.86.36,9,9,0,0,0,1.6-.13,4.1,4.1,0,0,0,1.36-.49V84.46h-2.54v-.9h3.52ZM173.23,78.7h1.27L180.94,88h0V78.7h1V89.27h-1.27L174.25,80h0v9.26h-1Zm-7,0h1V89.27h-1Zm-11.95,0h3.34a5.79,5.79,0,0,1,.78.09,4.77,4.77,0,0,1,.85.24,2.4,2.4,0,0,1,.78.48,2.48,2.48,0,0,1,.57.79,2.73,2.73,0,0,1,.22,1.16,2.66,2.66,0,0,1-.26,1.25,2.43,2.43,0,0,1-.66.8,2.77,2.77,0,0,1-.87.46,5.64,5.64,0,0,1-.91.21l3.08,5.08H160.1l-3-5H155.3v5h-1Zm1,4.66h2.09a3.44,3.44,0,0,0,1.26-.19,2.09,2.09,0,0,0,.75-.48,1.51,1.51,0,0,0,.37-.61,1.89,1.89,0,0,0,0-1.19,1.51,1.51,0,0,0-.37-.61,2.09,2.09,0,0,0-.75-.48,3.44,3.44,0,0,0-1.26-.19H155.3ZM142.36,78.7h6.47v.9h-5.48v3.76h5.14v.9h-5.14v4.12h5.72v.9h-6.7Zm-11.95,0h6.47v.9H131.4v3.76h5.14v.9H131.4v4.12h5.72v.9h-6.7Zm-14.71,0H117L123.41,88h0V78.7h1V89.27h-1.27L116.72,80h0v9.26h-1Zm-7,0h1V89.27h-1Zm-6,9.89a6.86,6.86,0,0,1-1.92.74,9.45,9.45,0,0,1-2,.22,5.83,5.83,0,0,1-2.22-.41A5,5,0,0,1,94.86,88a5.27,5.27,0,0,1-1.12-1.76,6.36,6.36,0,0,1,0-4.46A5.29,5.29,0,0,1,94.86,80a5.08,5.08,0,0,1,1.72-1.16,5.73,5.73,0,0,1,2.22-.42,5.12,5.12,0,0,1,3.81,1.46l-.72.75a3.08,3.08,0,0,0-.59-.53,4,4,0,0,0-.76-.42,4.94,4.94,0,0,0-.86-.27,4.16,4.16,0,0,0-.88-.1,4.64,4.64,0,0,0-1.86.36,4.14,4.14,0,0,0-1.41,1,4.36,4.36,0,0,0-.9,1.48,5.53,5.53,0,0,0,0,3.67,4.36,4.36,0,0,0,.9,1.48,4.14,4.14,0,0,0,1.41,1,4.64,4.64,0,0,0,1.86.36,9,9,0,0,0,1.6-.13,4.11,4.11,0,0,0,1.36-.49V84.46H99.22v-.9h3.52ZM79.31,78.7h1.27L87,88h0V78.7h1V89.27H86.77L80.33,80h0v9.26h-1Zm-11.95,0h6.47v.9H68.35v3.76h5.14v.9H68.35v4.12h5.72v.9h-6.7Zm-22.47,0h1.27L52.6,88h0V78.7h1V89.27H52.34L45.91,80h0v9.26h-1Zm-9.62,1.08-2.46,5.79h4.85Zm-.46-1.08h1l4.45,10.57H39.17L38,86.46h-5.6l-1.19,2.81h-1Zm-12.56.9H18.64v-.9h8.21v.9H23.24v9.68h-1Zm-9.32-.9h1V89.27h-1Zm-9.32.9H0v-.9H8.21v.9H4.6v9.68h-1Z"></path></g></g></svg>